<?xml version="1.0" encoding="UTF-8"?><svg id="Layer_1" xmlns="http://www.w3.org/2000/svg" viewBox="0 0 130 130"><defs><style>.cls-1{fill:#01d9c1;stroke-width:0px;}</style></defs><path class="cls-1" d="M37.01,74.94h-9.46c-1.22,0-2.21,1-2.21,2.22v25.61c0,1.22.99,2.22,2.21,2.22h33.94c1.95,0,2.94-2.34,1.59-3.77l-24.48-25.61c-.42-.43-.99-.68-1.59-.68h-.01Z"/><path class="cls-1" d="M87.64,25.66l-34.07,34.39c-.84.85-.86,2.2-.06,3.08l37.94,41.17c.42.45,1.01.71,1.63.71h9.37c1.22,0,2.21-1,2.21-2.22V27.22c0-1.22-1-2.22-2.21-2.22h-13.24c-.59,0-1.15.23-1.57.66Z"/><path class="cls-1" d="M25.34,27.22v26.65c0,1.22.99,2.22,2.21,2.22h3.23c.59,0,1.16-.23,1.57-.66l26.26-26.64c1.38-1.4.4-3.79-1.57-3.79h-29.49c-1.22,0-2.21,1-2.21,2.22Z"/></svg>